<svg xmlns="http://www.w3.org/2000/svg" viewBox="0 0 180 180"><title>info_recyclage</title><g id="Calque_5" data-name="Calque 5"><path d="M65.79,86.73l-26,5.38a.54.54,0,0,0-.16,1l7.52,4.34a.54.54,0,0,1,.2.73L34.44,120.5a.53.53,0,0,0,0,.59l13.14,17.58a.53.53,0,0,0,.89,0l17.22-29.83a.54.54,0,0,1,.73-.2L74,112.93a.54.54,0,0,0,.78-.63L66.41,87.09A.55.55,0,0,0,65.79,86.73Z" style="fill:#ff2b35"/><path d="M61.86,118.59,50.22,138.76a.54.54,0,0,0,.46.81H78.57a.54.54,0,0,0,.54-.54V118.86a.54.54,0,0,0-.54-.54H62.33A.55.55,0,0,0,61.86,118.59Z" style="fill:#ff2b35"/><path d="M91.51,129.18,109.18,149a.53.53,0,0,0,.93-.36V140a.54.54,0,0,1,.54-.54h25.79a.52.52,0,0,0,.49-.32L145.59,119a.54.54,0,0,0-.49-.75H110.65a.54.54,0,0,1-.54-.53V109a.53.53,0,0,0-.93-.35L91.51,128.47A.53.53,0,0,0,91.51,129.18Z" style="fill:#ff2b35"/><path d="M121.07,116.65h23.3a.53.53,0,0,0,.46-.8l-14-24.16a.54.54,0,0,0-.73-.19l-17.47,10.08a.54.54,0,0,0-.2.73l8.13,14.07A.52.52,0,0,0,121.07,116.65Z" style="fill:#ff2b35"/><path d="M115.77,85.06l8.35-25.22a.53.53,0,0,0-.77-.63l-7.52,4.34a.53.53,0,0,1-.73-.19L102.2,41a.53.53,0,0,0-.53-.26l-21.8,2.59a.53.53,0,0,0-.4.8L96.7,74a.53.53,0,0,1-.2.73L89,79.05a.54.54,0,0,0,.16,1l26,5.38A.53.53,0,0,0,115.77,85.06Z" style="fill:#ff2b35"/><path d="M90.14,65.73,78.5,45.55a.54.54,0,0,0-.93,0L63.62,69.71a.54.54,0,0,0,.2.73L81.29,80.53a.54.54,0,0,0,.73-.2l8.12-14.07A.51.51,0,0,0,90.14,65.73Z" style="fill:#ff2b35"/></g></svg>