<svg xmlns="http://www.w3.org/2000/svg" viewBox="0 0 180 180"><title>info_recyclage</title><g id="Calque_5" data-name="Calque 5"><path d="M65.79,91l-26,5.38a.54.54,0,0,0-.16,1l7.52,4.34a.54.54,0,0,1,.2.73l-12.9,22.34a.51.51,0,0,0,0,.58l13.14,17.59a.53.53,0,0,0,.89-.06L65.73,113a.54.54,0,0,1,.73-.19L74,117.18a.54.54,0,0,0,.78-.63L66.41,91.33A.55.55,0,0,0,65.79,91Z" style="fill:#0069ae"/><path d="M61.86,122.83,50.22,143a.53.53,0,0,0,.46.8H78.57a.54.54,0,0,0,.54-.54V123.1a.53.53,0,0,0-.54-.53H62.33A.56.56,0,0,0,61.86,122.83Z" style="fill:#0069ae"/><path d="M91.51,133.42l17.67,19.84a.53.53,0,0,0,.93-.36v-8.68a.54.54,0,0,1,.54-.53h25.79a.53.53,0,0,0,.49-.33l8.66-20.17a.54.54,0,0,0-.49-.75H110.65a.54.54,0,0,1-.54-.53v-8.68a.53.53,0,0,0-.93-.36L91.51,132.71A.53.53,0,0,0,91.51,133.42Z" style="fill:#0069ae"/><path d="M121.07,120.89h23.3a.53.53,0,0,0,.46-.8l-14-24.16a.54.54,0,0,0-.73-.19l-17.47,10.09a.54.54,0,0,0-.2.73l8.13,14.07A.53.53,0,0,0,121.07,120.89Z" style="fill:#0069ae"/><path d="M115.77,89.3l8.35-25.22a.53.53,0,0,0-.77-.63l-7.52,4.35a.54.54,0,0,1-.73-.2L102.2,45.26a.55.55,0,0,0-.53-.26l-21.8,2.59a.54.54,0,0,0-.4.8L96.7,78.22a.53.53,0,0,1-.2.73L89,83.29a.54.54,0,0,0,.16,1l26,5.38A.53.53,0,0,0,115.77,89.3Z" style="fill:#0069ae"/><path d="M90.14,70,78.5,49.79a.54.54,0,0,0-.93,0L63.62,74a.54.54,0,0,0,.2.73L81.29,84.77a.53.53,0,0,0,.73-.2L90.14,70.5A.51.51,0,0,0,90.14,70Z" style="fill:#0069ae"/></g></svg>