<svg xmlns="http://www.w3.org/2000/svg" viewBox="0 0 180 180"><title>info_recyclage</title><g id="Calque_5" data-name="Calque 5"><path d="M65.79,91.62,39.78,97a.54.54,0,0,0-.16,1l7.52,4.34a.54.54,0,0,1,.2.73L34.44,125.4a.51.51,0,0,0,0,.58l13.14,17.59a.53.53,0,0,0,.89,0l17.22-29.84a.54.54,0,0,1,.73-.19L74,117.83a.54.54,0,0,0,.78-.63L66.41,92A.55.55,0,0,0,65.79,91.62Z" style="fill:#01ae54"/><path d="M61.86,123.48,50.22,143.66a.53.53,0,0,0,.46.8H78.57a.54.54,0,0,0,.54-.53V123.75a.54.54,0,0,0-.54-.53H62.33A.56.56,0,0,0,61.86,123.48Z" style="fill:#01ae54"/><path d="M91.51,134.07l17.67,19.84a.53.53,0,0,0,.93-.35v-8.69a.54.54,0,0,1,.54-.53h25.79a.53.53,0,0,0,.49-.33l8.66-20.17a.54.54,0,0,0-.49-.75H110.65a.54.54,0,0,1-.54-.53v-8.68a.53.53,0,0,0-.93-.36L91.51,133.36A.53.53,0,0,0,91.51,134.07Z" style="fill:#01ae54"/><path d="M121.07,121.54h23.3a.53.53,0,0,0,.46-.8l-14-24.15a.53.53,0,0,0-.73-.2l-17.47,10.09a.54.54,0,0,0-.2.73l8.13,14.07A.53.53,0,0,0,121.07,121.54Z" style="fill:#01ae54"/><path d="M115.77,90l8.35-25.21a.54.54,0,0,0-.77-.64l-7.52,4.35a.54.54,0,0,1-.73-.2L102.2,45.92a.54.54,0,0,0-.53-.27l-21.8,2.59a.54.54,0,0,0-.4.8L96.7,78.87a.53.53,0,0,1-.2.73L89,83.94a.54.54,0,0,0,.16,1l26,5.38A.53.53,0,0,0,115.77,90Z" style="fill:#01ae54"/><path d="M90.14,70.62,78.5,50.45a.54.54,0,0,0-.93,0L63.62,74.6a.54.54,0,0,0,.2.73L81.29,85.42a.54.54,0,0,0,.73-.19l8.12-14.08A.51.51,0,0,0,90.14,70.62Z" style="fill:#01ae54"/></g></svg>