<svg xmlns="http://www.w3.org/2000/svg" viewBox="0 0 180 180"><title>info_recyclage</title><g id="Calque_5" data-name="Calque 5"><path d="M65.79,86.05l-26,5.38a.53.53,0,0,0-.16,1l7.52,4.34a.54.54,0,0,1,.2.73l-12.9,22.34a.53.53,0,0,0,0,.59L47.62,138a.53.53,0,0,0,.89-.05L65.73,108.1a.54.54,0,0,1,.73-.19L74,112.25a.54.54,0,0,0,.78-.63L66.41,86.4A.53.53,0,0,0,65.79,86.05Z" style="fill:#47484a"/><path d="M61.86,117.91,50.22,138.08a.53.53,0,0,0,.46.8H78.57a.54.54,0,0,0,.54-.53V118.17a.54.54,0,0,0-.54-.53H62.33A.55.55,0,0,0,61.86,117.91Z" style="fill:#47484a"/><path d="M91.51,128.49l17.67,19.84a.53.53,0,0,0,.93-.35v-8.69a.54.54,0,0,1,.54-.53h25.79a.54.54,0,0,0,.49-.32l8.66-20.18a.53.53,0,0,0-.49-.74H110.65a.54.54,0,0,1-.54-.54V108.3a.53.53,0,0,0-.93-.36L91.51,127.78A.53.53,0,0,0,91.51,128.49Z" style="fill:#47484a"/><path d="M121.07,116h23.3a.53.53,0,0,0,.46-.8L130.88,91a.53.53,0,0,0-.73-.2L112.68,100.9a.54.54,0,0,0-.2.73l8.13,14.07A.54.54,0,0,0,121.07,116Z" style="fill:#47484a"/><path d="M115.77,84.38l8.35-25.22a.53.53,0,0,0-.77-.63l-7.52,4.34a.53.53,0,0,1-.73-.2L102.2,40.34a.54.54,0,0,0-.53-.27l-21.8,2.59a.54.54,0,0,0-.4.8L96.7,73.29a.53.53,0,0,1-.2.73L89,78.37a.53.53,0,0,0,.16,1l26,5.38A.53.53,0,0,0,115.77,84.38Z" style="fill:#47484a"/><path d="M90.14,65,78.5,44.87a.54.54,0,0,0-.93,0L63.62,69a.54.54,0,0,0,.2.73L81.29,79.84a.54.54,0,0,0,.73-.19l8.12-14.07A.52.52,0,0,0,90.14,65Z" style="fill:#47484a"/></g></svg>