<svg xmlns="http://www.w3.org/2000/svg" viewBox="0 0 180 180"><title>info_recyclage</title><g id="Calque_5" data-name="Calque 5"><path d="M71.79,88.16l-26,5.38a.53.53,0,0,0-.16,1l7.52,4.35a.53.53,0,0,1,.2.73l-12.9,22.33a.55.55,0,0,0,0,.59L53.61,140.1a.53.53,0,0,0,.89,0l17.23-29.83a.53.53,0,0,1,.73-.2L80,114.36a.53.53,0,0,0,.77-.63L72.4,88.51A.53.53,0,0,0,71.79,88.16Z" style="fill:#643600"/><path d="M67.86,120,56.21,140.19a.54.54,0,0,0,.46.81h27.9a.54.54,0,0,0,.53-.54V120.29a.54.54,0,0,0-.53-.54H68.32A.52.52,0,0,0,67.86,120Z" style="fill:#643600"/><path d="M97.51,130.61l17.66,19.84a.54.54,0,0,0,.94-.36v-8.68a.54.54,0,0,1,.53-.54h25.79a.53.53,0,0,0,.49-.32l8.66-20.18a.53.53,0,0,0-.49-.74H116.64a.54.54,0,0,1-.53-.54v-8.68a.54.54,0,0,0-.94-.35L97.51,129.9A.53.53,0,0,0,97.51,130.61Z" style="fill:#643600"/><path d="M127.06,118.08h23.3a.53.53,0,0,0,.46-.8L136.88,93.12a.54.54,0,0,0-.73-.2L118.67,103a.54.54,0,0,0-.19.73l8.12,14.07A.53.53,0,0,0,127.06,118.08Z" style="fill:#643600"/><path d="M121.76,86.49l8.35-25.22a.53.53,0,0,0-.77-.63L121.82,65a.54.54,0,0,1-.73-.19l-12.9-22.34a.52.52,0,0,0-.52-.26l-21.8,2.59a.53.53,0,0,0-.4.79l17.22,29.84a.54.54,0,0,1-.19.73L95,80.48a.54.54,0,0,0,.15,1l26,5.37A.52.52,0,0,0,121.76,86.49Z" style="fill:#643600"/><path d="M96.14,67.16,84.49,47a.54.54,0,0,0-.93,0L69.62,71.14a.54.54,0,0,0,.19.73L87.28,82a.54.54,0,0,0,.73-.2l8.13-14.07A.55.55,0,0,0,96.14,67.16Z" style="fill:#643600"/></g></svg>