<svg xmlns="http://www.w3.org/2000/svg" viewBox="0 0 180 180"><title>info_recyclage</title><g id="Calque_5" data-name="Calque 5"><path d="M59.8,91l-26,5.38a.54.54,0,0,0-.16,1l7.52,4.34a.54.54,0,0,1,.19.73L28.45,124.82a.51.51,0,0,0,0,.58L41.63,143a.53.53,0,0,0,.89-.06L59.74,113.1a.54.54,0,0,1,.73-.19L68,117.25a.53.53,0,0,0,.77-.63L60.42,91.4A.55.55,0,0,0,59.8,91Z" style="fill:#ff7d04"/><path d="M55.87,122.9,44.22,143.08a.54.54,0,0,0,.47.8H72.58a.53.53,0,0,0,.53-.54V123.17a.53.53,0,0,0-.53-.53H56.33A.54.54,0,0,0,55.87,122.9Z" style="fill:#ff7d04"/><path d="M85.52,133.49l17.67,19.84a.53.53,0,0,0,.93-.36v-8.68a.53.53,0,0,1,.53-.53h25.8a.54.54,0,0,0,.49-.33l8.65-20.17a.53.53,0,0,0-.49-.75H104.65a.53.53,0,0,1-.53-.53V113.3a.53.53,0,0,0-.93-.36L85.52,132.78A.53.53,0,0,0,85.52,133.49Z" style="fill:#ff7d04"/><path d="M115.08,121h23.29a.54.54,0,0,0,.47-.8L124.89,96a.54.54,0,0,0-.73-.19L106.69,105.9a.53.53,0,0,0-.2.73l8.13,14.07A.53.53,0,0,0,115.08,121Z" style="fill:#ff7d04"/><path d="M109.78,89.37l8.35-25.22a.54.54,0,0,0-.78-.63l-7.52,4.35a.54.54,0,0,1-.73-.2L96.21,45.33a.56.56,0,0,0-.53-.26l-21.8,2.59a.54.54,0,0,0-.4.8L90.7,78.29a.54.54,0,0,1-.19.73L83,83.36a.54.54,0,0,0,.16,1l26,5.38A.55.55,0,0,0,109.78,89.37Z" style="fill:#ff7d04"/><path d="M84.15,70,72.5,49.86a.53.53,0,0,0-.92,0L57.63,74a.53.53,0,0,0,.2.73L75.3,84.84a.53.53,0,0,0,.73-.2l8.12-14.07A.51.51,0,0,0,84.15,70Z" style="fill:#ff7d04"/></g></svg>