<svg
	xmlns="http://www.w3.org/2000/svg"
	xmlns:xlink="http://www.w3.org/1999/xlink" viewBox="0 0 1200 1200">
	<defs>
		<linearGradient id="linear-gradient" x1="591.87" y1="348.64" x2="753.07" y2="509.84" gradientUnits="userSpaceOnUse">
			<stop offset="0" stop-color="#fff"/>
			<stop offset="1" stop-color="#fff"/>
		</linearGradient>
		<linearGradient id="linear-gradient-2" x1="465.16" y1="437.51" x2="616.92" y2="437.51" gradientUnits="userSpaceOnUse">
			<stop offset="0" stop-color="#f8f8f8"/>
			<stop offset="1" stop-color="#f9f9f9"/>
		</linearGradient>
		<linearGradient id="linear-gradient-3" x1="377.21" y1="610.3" x2="542.11" y2="610.3" xlink:href="#linear-gradient">
			<stop offset="0" stop-color="#fff"/>
			<stop offset="1" stop-color="#fff"/>
			</linearGradient>
		<linearGradient id="linear-gradient-4" x1="433.12" y1="716.5" x2="587.35" y2="716.5" xlink:href="#linear-gradient-2">
		<stop offset="0" stop-color="#f8f8f8"/>
			<stop offset="1" stop-color="#f9f9f9"/>
			</linearGradient>
		<linearGradient id="linear-gradient-5" x1="719.38" y1="673.3" x2="833.11" y2="559.57" xlink:href="#linear-gradient">
			<stop offset="0" stop-color="#fff"/>
			<stop offset="1" stop-color="#fff"/>
			</linearGradient>
		<linearGradient id="linear-gradient-6" x1="596.14" y1="722.96" x2="780.09" y2="722.96" xlink:href="#linear-gradient-2">
		<stop offset="0" stop-color="#f8f8f8"/>
			<stop offset="1" stop-color="#f9f9f9"/>
			</linearGradient>
		<linearGradient id="linear-gradient-7" x1="601.61" y1="397.19" x2="762.81" y2="558.39" xlink:href="#linear-gradient">
			<stop offset="0" stop-color="#fff"/>
			<stop offset="1" stop-color="#fff"/>
			</linearGradient>
		<linearGradient id="linear-gradient-8" x1="474.89" y1="486.06" x2="626.65" y2="486.06" xlink:href="#linear-gradient-2">
		<stop offset="0" stop-color="#f8f8f8"/>
			<stop offset="1" stop-color="#f9f9f9"/>
			</linearGradient>
		<linearGradient id="linear-gradient-9" x1="386.95" y1="658.85" x2="551.85" y2="658.85" xlink:href="#linear-gradient">
			<stop offset="0" stop-color="#fff"/>
			<stop offset="1" stop-color="#fff"/>
			</linearGradient>
		<linearGradient id="linear-gradient-10" x1="442.85" y1="765.05" x2="597.08" y2="765.05" xlink:href="#linear-gradient-2">
		<stop offset="0" stop-color="#f8f8f8"/>
			<stop offset="1" stop-color="#f9f9f9"/>
			</linearGradient>
		<linearGradient id="linear-gradient-11" x1="729.12" y1="721.85" x2="842.84" y2="608.12" xlink:href="#linear-gradient">
			<stop offset="0" stop-color="#fff"/>
			<stop offset="1" stop-color="#fff"/>
			</linearGradient>
		<linearGradient id="linear-gradient-12" x1="605.88" y1="771.51" x2="789.82" y2="771.51" xlink:href="#linear-gradient-2">
			<stop offset="0" stop-color="#f8f8f8"/>
			<stop offset="1" stop-color="#f9f9f9"/>
		</linearGradient>
	</defs>
	<title>Logo</title>
	<g style="isolation:isolate">
		<g id="Design">
			<path d="M742.57,659.34a16.16,16.16,0,0,0-1.71-4.58c-.85-1.59-3.37-6.15-6.72-12.16Z" style="fill:none"/>
			<path d="M615.71,497.39l31.77,9.21,41.07,11.9,31.77,9.21a19.94,19.94,0,0,0,25.25-14.83l7.32-32.15c2.59-11.42,6.83-30.12,9.43-41.55L769.63,407c2.61-11.42-4.78-15.19-16.41-8.37l-19.94,11.71C726,398,718.67,385.62,715.85,381.11c-6.42-10.26-18.76-18.1-43-18l-96,.55,40.1,70.16a12.94,12.94,0,0,1,2.48,3.51c1.91,3.86,9.18,17.12,16.42,30.22L616.31,479C604.68,485.85,604.42,494.11,615.71,497.39Z" style="fill:url(#linear-gradient)"/>
			<path d="M504.57,387.06c-10.3,15.59-36.42,57.06-36.42,57.06a19.28,19.28,0,0,0,6.65,27l64,37.44a20.5,20.5,0,0,0,27.68-6.95S602.64,442.48,606,437c3.44-5.69,7.58-6.54,10.93-3.16l-40.1-70.16-23.13.13C537,363.92,518,366.81,504.57,387.06Z" style="fill:url(#linear-gradient-2)"/>
			<path d="M391.3,649.23c7.21,13.94,27.18,49.84,41.82,76.15l45.38-73.93c5.35-9.09,15.27-26,23.54-39.93l23.23,12.86c11.8,6.54,19.09,2.58,16.21-8.77l-8.13-32c-2.88-11.36-7.6-29.94-10.49-41.3l-8.11-32a20,20,0,0,0-25.62-14.19l-31.53,10-40.75,12.92-31.53,10c-11.21,3.55-10.73,11.81,1.06,18.34L403.51,557c-8.75,16.86-19.05,36.77-21.65,42.48C377.16,609.75,380.06,627.55,391.3,649.23Z" style="fill:url(#linear-gradient-3)"/>
			<path d="M478.5,651.45l-45.38,73.93C441.27,740,447.77,751.71,449.5,755c4.79,9.08,11.65,26.83,55,26.59l63-.36a20.06,20.06,0,0,0,19.92-20.07l-.42-74a20.07,20.07,0,0,0-20.16-19.85l-86,.49c-7.76,0-8.75-5.08-6-9.85C475.11,657.22,476.5,654.87,478.5,651.45Z" style="fill:url(#linear-gradient-4)"/>
			<path d="M742.57,659.34,780.09,734c13.13-24.1,35.42-66,44.53-84.06,12.19-24.21,15.64-45.2,10-56.23S801.24,529,801.24,529A18.39,18.39,0,0,0,775,521.71l-63.62,39A21,21,0,0,0,704,588.59s19.33,34.63,30.1,54c3.35,6,5.87,10.57,6.72,12.16A16.16,16.16,0,0,1,742.57,659.34Z" style="fill:url(#linear-gradient-5)"/>
			<path d="M770.8,750.74c1.48-2.5,4.87-8.62,9.29-16.74l-37.52-74.66c.79,4.34-1.41,7.29-6.81,7.32l-38.8.23-.21-23.15c-.13-13.44-7.17-17.81-15.66-9.69l-23.89,22.8c-8.49,8.11-22.4,21.37-30.88,29.48l-23.89,22.8a19.83,19.83,0,0,0,.25,29.2L627,760.72l31.4,28.91L682.68,812c8.64,8,15.62,3.46,15.49-10L698,780l29.71-.17C754.68,779.71,764.89,760.66,770.8,750.74Z" style="fill:url(#linear-gradient-6)"/>
		</g>
		<g id="Calque_4" data-name="Calque 4">
			<circle cx="616.97" cy="638.1" r="442.06" transform="translate(-270.49 623.16) rotate(-45)" style="fill:#50aab7"/>
			<path d="M953.54,717.92C932,715.8,909.74,714.59,889,721c-11.33,3.51-23.49,11.74-23.17,23.6.19,6.89,4.71,13,5.15,19.93.65,10.15-8,19-17.63,22.23s-20.09,2.39-30.26,2a286.93,286.93,0,0,0-102.35,14.9c-13.83,4.68-29.6,13.64-29.56,28.24,0,8.19,5.55,15.63,12.55,19.89s15.29,5.82,23.44,6.71c8.36.91,17,1.24,24.76,4.41s14.79,10,15.19,18.46c.56,11.7-11.56,20.34-23.12,22.24s-23.49-.48-35.08,1.27-23.87,10-23.77,21.7c.11,13.35,15.66,21.08,29,21.83,19.3,1.08,38.13-5.64,57.37-7.55s41.61,2.84,51.08,19.69c4.25,7.54,6.26,17.65,14.27,20.93,9.31,3.82,18.63-4.54,27.56-9.2,13.93-7.28,30-5.57,46-3.65A441.29,441.29,0,0,0,1053.69,707c-10.56,6.91-22.91,11-35.34,12.85C996.9,723,975.1,720,953.54,717.92Z" style="fill:#46a6b0"/>
			<path d="M560.81,1049.37c-8.13-14.36-33.64-12.63-38.93-28.26-4-11.69,7-22.78,17.28-29.64s22.36-15.42,21.8-27.74c-.6-13.13-15.61-20.71-28.72-21.72-15.81-1.22-31.48,2.89-47,6.29s-31.72,6.11-47.08,2.13-29.59-16.33-30.93-32.14c-1-11.29,4.59-22.28,4.32-33.62-.44-18.28-16.28-33.2-33.64-39s-36.14-4.5-54.43-4-37.45-.06-53.48-8.89-27.54-28.42-21.42-45.65c3.34-9.4,11.09-16.43,16.89-24.54s9.68-19.36,4.43-27.84c-7.67-12.4-29.84-11.24-34.33-25.11-2.26-7,1.57-14.61,6.81-19.74,9.55-9.34,24.07-14.39,26.15-29.24,1.28-9.16-2.18-15-10.66-18.1-9.22-3.33-20.39-2.11-30-3.43-2.26-.31-4.51-.68-6.75-1.06H174.91c0,223.35,165.64,408,380.79,437.84C562.1,1067.79,565.68,1058,560.81,1049.37Z" style="fill:#46a6b0"/>
			<path d="M684.4,431.11c-8.23,5.21-16.1,11.35-21.47,19.46s-8,18.48-5.12,27.78c3.68,11.92,15.84,22.28,12.51,34.3-2.41,8.71-11.88,13.1-20.3,16.38l-54.11,21.06c-8.42,3.28-17,6.65-24,12.37s-12.24,14.32-11.67,23.33c.87,14,15.22,23.69,29.08,25.63s27.86-1.57,41.84-2.31c8.35-.44,17.09.2,24.34,4.35s12.59,12.56,11,20.76c-1.56,8-8.71,13.35-14.46,19.08s-10.69,14.51-6.77,21.61c4.39,8,15.88,7.4,24.68,5.18,24.32-6.12,50-16.58,73.47-7.77C761,678.9,773.09,695,789.36,704.24c19,10.83,42.55,11.46,63.84,6.31s40.88-15.59,60.12-26.06c15-8.15,30.38-16.8,40.41-30.58s13-34.21,2.35-47.48c-9.12-11.32-24.79-14.23-38.32-19.54s-27.53-17.45-24.43-31.65c2.54-11.64,15-17.66,25.2-23.79,8.32-5,16.21-11.3,20.84-19.83s5.41-19.64,0-27.71c-7-10.38-21-12.63-33.51-13.51s-26.38-2-34.66-11.36c-6-6.73-8.08-15.78-14.56-22.23-6-6-14.51-9.89-21.93-13.94-11.48-6.26-22.6-9.72-35.48-12C759.63,403.75,718.78,409.35,684.4,431.11Z" style="fill:#46a6b0"/>
			<path d="M855,792.33c.61.77-.22-.32-.39-.49a5.07,5.07,0,0,0-2.62-1.43h-.22a2.1,2.1,0,0,0-.95-.69,14.1,14.1,0,0,1-2-1.22,13.37,13.37,0,0,1-1.78-1,3.38,3.38,0,0,0-5.24.67c-1.69,3-.42,6.28,2.09,8.28a14.34,14.34,0,0,0,3.65,1.93,4.51,4.51,0,0,1,2,1.27c1.73,2.06,4.84,1.11,6.15-.79a5.33,5.33,0,0,0,.13-5.44A8.3,8.3,0,0,0,855,792.33Z" style="fill:#356938"/>
			<path d="M875.7,803.19a3.58,3.58,0,0,0-5.49-1.54,3.52,3.52,0,0,0-.56.21c-2.27,1.12-2.46,4.38-.82,6.09a5.81,5.81,0,0,0,1.39,2.19,6.35,6.35,0,0,0,8,.54,4.06,4.06,0,0,0,.82-6.38A3.74,3.74,0,0,0,875.7,803.19Z" style="fill:#356938"/>
			<path d="M891.07,825.77a4.79,4.79,0,0,1-1.19-2.38,2.25,2.25,0,0,0-2.48-1.62,2.28,2.28,0,0,0-2,2.22,14.88,14.88,0,0,0,.14,2.83,10.12,10.12,0,0,0,.24,1.22c0,.2.24,1.3.26.56a3.3,3.3,0,1,0,5-2.83Z" style="fill:#356938"/>
			<path d="M815.18,777.46a2.25,2.25,0,0,0-1.64,1.65,2.5,2.5,0,0,0,1.72,3,3,3,0,0,0,3.13-1,2.62,2.62,0,0,0,0-3.29A2.34,2.34,0,0,0,815.18,777.46Z" style="fill:#356938"/>
			<path d="M733.88,439.11a49.2,49.2,0,0,1,7.36,1.78l2.45,1.34a7.49,7.49,0,0,1,2.81,5.38c.46,3.95-.36,7.26,3.21,10,4.64,3.58,15.17,3.05,16.32-3.88a9.46,9.46,0,0,0-1.32-6.5,2.21,2.21,0,0,0,.19-1.25c-1.07-9.3-11.1-9.68-17-14.93-2.48-2.19-3-4.07-4.15-7-.62-1.64-.81-3.11-2.16-4.5-2.61-2.7-7.28-3.8-10.89-3.91-6.09-.18-16.59,3.19-17.35,10.45C712.41,434.58,727.83,437.8,733.88,439.11Z" style="fill:#356938"/>
			<path d="M699.65,414.57a4.81,4.81,0,0,0,2.83-1.12,4.26,4.26,0,0,0,1.82.15,4,4,0,0,0,3-2,4.27,4.27,0,0,0,0-4.13,6.68,6.68,0,0,0-5.92-3.72,5.71,5.71,0,0,0-5.51,4.36,6,6,0,0,0,.12,3.32C696.48,413,697.93,414.64,699.65,414.57Z" style="fill:#356938"/>
			<path d="M704.09,389.58a3.38,3.38,0,0,0,1.09-.24,3.75,3.75,0,0,0,.47.05,3.37,3.37,0,0,0,3.2-4.2,4.68,4.68,0,0,0-4.63-3.6c-1.43.07-3.11,1.28-2.91,2.91a23.75,23.75,0,0,1,.09,2.39A2.74,2.74,0,0,0,704.09,389.58Z" style="fill:#356938"/>
			<path d="M713.5,460.37a5.29,5.29,0,0,0,1.87-1.74,2.85,2.85,0,0,0-.74-3.69,2.89,2.89,0,0,0-3.76.22,3.93,3.93,0,0,0-1,1.53,2.69,2.69,0,0,0,3.67,3.68Z" style="fill:#356938"/>
			<path d="M734.09,468.52c4,0,4-6.23,0-6.23S730.07,468.52,734.09,468.52Z" style="fill:#356938"/>
			<path d="M711.43,621.4c-4.46,0-4.47,6.93,0,6.93S715.89,621.4,711.43,621.4Z" style="fill:#356938"/>
			<path d="M707.08,642.37a3,3,0,0,0-2.93-5l-.77.14a2.86,2.86,0,0,0,0,5.51l.77.14A3.09,3.09,0,0,0,707.08,642.37Z" style="fill:#356938"/>
			<path d="M706.57,654.9c-3,0-3,4.69,0,4.69S709.59,654.9,706.57,654.9Z" style="fill:#356938"/>
			<path d="M1057.41,600a440,440,0,0,0-95.12-237.95l-22.95-7.42c-5.23-1.69-10.71-3.39-16.12-3A70.85,70.85,0,0,0,899.64,341c-8.77-2.19-16.45-2.17-23.44-8.64-5.94-5.49-11.26-10.47-18.87-13.6-6.93-2.85-14.26-4.17-21.66-5.07-7.63-.93-16.39-2.65-23.74.37-3.36,1.38-6,3.71-9,5.7-3.38,2.25-6.67,2.51-10.46,3.61-5.77,1.67-9.88,5.67-12.48,11-2.28,4.71-3.43,9.84-5.39,14.67-3.32,8.21-9.21,10.62-17.57,12.14-14.53,2.63-27.48,8.59-34.64,22.34-2.31,4.44-6.23,12.58-2.09,17,2,2.14,4.68,2.23,7.36,2,5.2-.43,10.24-1.42,15.5-1.46q3.34,0,6.68.19c4.07.29,3.44,1.55,4.89,4.68a12.1,12.1,0,0,0,5.3,5.52c4.79,2.64,13.65,1.66,16.38,6.92,1.73,3.31,1.35,6.7,4.17,9.62a18,18,0,0,0,8.86,4.69c4.06.95,8.17.64,12.3.68a23.63,23.63,0,0,1,7.35.77c3.42,1.17,8.1,5.57,5.11,9.71a18.91,18.91,0,0,0-4.28,2.9l-.31.3c-6.77,2.19-12.8,6.47-18.67,10.33a189.35,189.35,0,0,0-18.36,13.35c-6.55,5.55-11.72,12.32-17.88,18.25s-13.16,8.8-21.8,9.36c-7.75.5-15.51-.2-23.22,1.07-12,2-23.57,9.52-23.26,22.92a17.17,17.17,0,0,0,5.15,12.24,15.5,15.5,0,0,0,6.55,3.32c.92.26,3.72.34,4.38,1.05,1.94,2.08-.89,7.33-1.57,9.47q-2.18,6.83-4.34,13.65c-1.4,4.42-3.7,9.25-4.16,13.87-.54,5.25,3.15,8,7.85,9,3.9.87,7.05.18,8.65,4.54,1.06,2.88,1.09,5.21,3.47,7.43,3.23,3,7.71,3.5,12,3.12-1.28,4.76-1.41,9.83,1.72,13.19a17.51,17.51,0,0,0,1.47,6.58c2.41,5.77,8.53,11.36,5.88,17-1.55,3.32-5.45,4.64-8.72,6.3s-6.58,5-5.38,8.49c1.68,4.83,9.39,3.58,12.95,7.25s.92,10.13-2.47,14.16-7.63,8.66-6.37,13.78c1.09,4.44,6,6.89,10.6,7.15s9.07-1,13.64-1.18c15.38-.56,29.6,13.92,28.76,29.29-.27,4.95-1.43,11,2.53,13.95,2.89,2.16,7.07,1.26,10.21-.52s5.86-4.35,9.26-5.58a13,13,0,0,1,14.91,19.83l3.34,2.41a6.65,6.65,0,0,0,1.52,6.63c1.74,2,4.36,2.56,6.54,3.91,3.45,2.14,4.12,5,5.48,8.61,2.19,5.73,5.63,8.31,11.12,10.84,7.15,3.3,14.25,6.81,21.52,9.81,5.31,2.18,10.53,3.36,15.95,1.88l18.47,7.77c4.2,1.77,10.17,3,12.35-1l2.49,5.42,28.43.61c7.86.17,16.24.2,22.91-4s10.24-14.23,5-20.1c-1.87-2.1-4.62-3.45-5.91-6-2.09-4.09.69-8.89,3.37-12.63l1.32-1.85a15.53,15.53,0,0,0,11-2.72,2.08,2.08,0,0,0,2.92,1.39,7.1,7.1,0,0,0,3.61-4.51,10.93,10.93,0,0,0,9.49-2.7,9.76,9.76,0,0,0,3.08-8.1c-.31-3.79-2.45-5.17.76-8,1.95-1.7,3.66-3.58,4.28-6.18.37-1.53,0-3.16.66-4.64a11.48,11.48,0,0,1,2.42-3c3.5-2.78,7.1-4.83,9.37-9a4.44,4.44,0,0,0-.44-5c1.57-1.94,2.33-4.2.58-6.86-2.35-3.56-6.83-3.15-10-1.17a5,5,0,0,0-1.52,1.5c-4.89-.66-9.3-2.47-11.57-6.68-4.37-8.1,2.92-17.29,9.16-24.06,4.24-4.61,8.35-9.68,9.82-15.77,1.1-4.59.26-9.89-2.59-13.5,5.23-4.54,8.75-10.62,8.45-18.07a17.49,17.49,0,0,0-1-4.91c-.5-1.46-2.45-3.84-2.38-5.32a7.29,7.29,0,0,1,1.56-3.68l20.74.19c3.9,0,8,0,11.45-1.7s6.17-5.75,5-9.48A14.22,14.22,0,0,0,1057.41,600Z" style="fill:#356938"/>
			<path d="M210.88,662.41C223,650.17,233.94,634.1,251,631.29c9.3-1.53,18.82,1.36,28.21.57s19.78-8,18.29-17.26c-1-6.45-7.19-10.62-10.78-16.08-8-12.08-1.79-29.33,9.53-38.34s26.2-11.85,40.44-14.41l100.66-18.13c12.67-2.28,25.76-4.73,36.43-11.94s18.31-20.55,14.86-33c-3.39-12.14-15.93-19.77-20.33-31.59-5-13.46,2.24-29,13.42-38s25.49-13,39.36-16.71L636.63,365.3c11.86-3.19,24.07-6.55,33.74-14.13s16.21-20.52,12.59-32.26c-4.72-15.35-22.86-21.09-38.1-26.19s-32.61-16-30.89-31.93c1.53-14.22,17.87-22.93,20.71-37,2.19-10.81-4.23-20.58-13.16-27.78-1.52,0-3,0-4.55,0C372.83,196,174.91,394,174.91,638.1q0,19.64,1.69,38.86C188.15,678.59,202,671.4,210.88,662.41Z" style="fill:#46a6b0"/>
			<path d="M690.82,799.62c-3.8-1.22-8.28-4.14-7.26-8-3.71,2.7-9,.25-12.26-3s-6-7.44-10.31-8.9c-4-1.35-6.11.22-9.42,2.88-2.31,1.31-5.4-.78-5.94-3.38s.71-5.24,2.26-7.39,3.44-4.12,4.47-6.56c3-7-3.25-15.6-10.82-16.6L641,744a15.82,15.82,0,0,1-14.91-2.35,64.1,64.1,0,0,1-5.05-5A60.26,60.26,0,0,0,610.47,729l-9.94-6.13c-8.63-5.34-17.35-10.72-26.91-14.16,1.42,2.38-1.92,5.12-4.66,4.76s-5-2.3-7.7-3c-4.15-1.13-8.42.77-12.26,2.8a7,7,0,0,0-2-2.46c-2.74-2.07-6.71-1.84-9.76-.26-6.37,3.29-7.82,8.67-6.58,13-3.21,2.05-7,4.26-9.06,3.81s-4.75-5.22-7.41-6.22a12.73,12.73,0,0,0-10.41.52l-23.21-4c-2.93-3.85-1.71-9.38.18-13.84s4.35-9.1,3.46-13.86-5.1-8.39-9-11.45l-11.56,1.17-.15-5.49c-1.5,1.14-3.83.1-4.71-1.57s-.71-3.67-.53-5.55l1.41-14.41c.23-2.37.44-4.89-.61-7s-3.83-3.62-5.89-2.41c-.09-1.35-.18-2.69-.28-4-3-2-7.23-.94-10,1.38s-4.36,5.68-5.9,8.93l-5.13,10.84L420.65,660c1.55-3.77-1.89-8.59-6-8.36-6.07-5.17-7.12-9.66-12.3-15.72-2.47-2.89-4.93-6.07-5.46-9.84-.72-5,2.12-9.83,4.86-14.12s5.71-8.77,10.4-10.62c5.3-2.09,11.22-.22,16.9.13s12.71-2.2,13.26-7.87c.69,4.19,6.83,4.64,10.51,2.52s6.71-5.72,10.91-6.31c3.66-.51,7.27,1.5,9.9,4.1s4.58,5.81,7,8.58a29.7,29.7,0,0,0,2.89,2.83,1.83,1.83,0,0,0,.31,1c2.22,3.37,1,7.51,2.1,11.24a9,9,0,0,0,6.46,6.6,7.12,7.12,0,0,0,7.67-2.94c.69-1.1.81-3.06,1-4.94a44.94,44.94,0,0,0,4.74-4.51l11.59-5c3.27-7,8.83-11.38,12.1-18.35,1-2.14,2-4.29,3-6.43l2.49-5.3q2.58-5.52,5.18-11c3.09-6.58,6.18-13.19,8.7-20,5.14-4.21,9.09-9.57,10.39-16.54s-.82-13.81.21-20.67c1.11-7.33,5.74-13.41,5.44-21.08-.28-7.11-4.29-12.91-5.59-19.72-1.38-7.25,1.53-14.58-.7-21.82a15.85,15.85,0,0,0-13.51-11.58c-3.8-.56-5.5-.39-6.94-3.95-1-2.48-1.39-5.22-2.1-7.79-1.4-5-3.57-10.05-8.22-12.85-3.33-2-7.23-2.32-11-2.24-2.76.06-9.08,1.36-9.81-2.46-.86-4.5-7.87-5.34-9.89-1.29-5.44,10.86-18.32,7.35-25.86,1-3.75-3.16-8.65-.91-9.17,3.8-.53,4.86-1,11.12-5.1,14.5-4.23,3.51-7.66.34-9.9-3.31-4.37-7.13-5.37-15.88-8.72-23.47-3.41-7.74-9.77-10.27-17.83-10.81-10.33-.68-19.09-3-27.6-9.17-2.33-1.68-6.17,0-6.74,2.74.34-1.63-2.83-5.26-3.95-6.57a12.41,12.41,0,0,0-5.84-4.09c-5.41-1.55-11,1.44-14.52,5.43-4,4.59-4.82,11.53-9.45,15.6-4.38,3.86-11.16,4.09-16.65,4.75-5.23.64-10.47,1.31-15.3,3.55-5.6,2.58-10,6.94-14.55,11-5,4.43-9.72,6.29-15.88,8.43-5.23,1.82-9.05,4.88-10.56,10.37-1.63,5.95,1,12.62-3.21,17.77-5.17,6.36-11.87,11.8-17.67,17.59-5.41,5.42-11.27,10.64-16.31,16.41-3.17,3.62-5.07,8-3.21,12.73,1.3,3.29,4.13,5.49,6.94,7.46,3.34,2.34,9.26,4.31,7.34,9.13-1.82,4.54-5.63,7.59-4.7,13,.9,5.15,5.4,8,10.25,8.66,3.11.45,6.11-.6,9.16-.33,4.39.39,5.38,3.31,8.28,6a13.65,13.65,0,0,0,7.58,3.6c3.86.61,6.91-.11,8.9,3.93,2.67,5.43,2.7,11.28,6.48,16.3.33.43.68.84,1,1.23-.3,9.62-.26,19.57,4.06,28.13a17.31,17.31,0,0,0,6.79,7.66c3,1.66,7.05,1.84,9.84-.2-2.61,2.92-1.56,7.76,1.05,10.68s6.36,4.5,9.79,6.41a51.61,51.61,0,0,1,25.22,34.72c.86,4.39,1.18,9,3.35,12.92s7,6.85,11.12,5.09c.47.87.94,1.74,1.4,2.62,2.59,4.84,6.24,9.38,11.18,11.76s10.48,3.2,15.92,4l21.71,3.14c5.28.76,10.62,1.54,15.55,3.57,6,2.46,11,6.62,16,10.73,3.1,2.55,6.31,5.27,7.79,9,1.32,3.31,1.17,7.24,3.27,10.13s5.48,3.86,8.76,4.69a132.94,132.94,0,0,0,36.14,3.94l4.5,10c5.39,11.91-3.33,25.38-13.34,33.77-3.47,2.92-7.58,5.33-9.84,9.25-2.16,3.76-2.29,8.31-2.15,12.64s.47,8.79-1,12.88-5.15,7.76-9.47,7.54L481.54,830c-1.87,2.07.79,5.83,3,7.55s5,2.69,6.72,4.88c2.47,3.16,1.85,7.64,1.66,11.65s.76,8.88,4.53,10.27,9-1.57,11.86,1.41c1.48,1.57,1.4,4.07,2.51,5.93a5.16,5.16,0,0,0,9.59-2.53,14.13,14.13,0,0,0,11.09,3.22c2.13-.31,3.24.69,4.33,2.54a15,15,0,0,1,1.55,6.19l1.32,12.79c.22,2.12.42,4.38-.58,6.26-2.81,5.29-12.73,4-14.22,9.84-1.12,4.36,3.89,7.72,5.34,12,2,6-3.27,11.77-8.13,15.81s-10.33,9.55-8.67,15.65c.83,3,3.73,4.82,6.83,5.34s6.22-.43,9.22-1.36l20-6.22c4.81-1.5,10.43-3.9,11.19-8.87,4.08,0,7.13-3.75,8.9-7.42s3.06-7.84,6.24-10.39c6.82-5.46,17.27-.26,25.52-3.14,5.78-2,9.4-7.57,13.78-11.84s11.54-7.38,16.39-3.66l9.67-8.76c-2.81-4,2.09-10,5.68-13.23s8.19-5.76,10.33-10.13c1.68-3.43,1.53-7.44,2.59-11.11,1.68-5.88,6.28-10.41,10.7-14.64l25.2-24.17c-2.4.75-4.55-2.33-4-4.79s2.59-4.25,4.43-6,3.67-3.89,3.52-6.4C699.31,802.65,694.62,800.83,690.82,799.62Z" style="fill:#356938"/>
			<path d="M525.71,661.57c2.77-.34,5.4-2.67,5.33-5.45-.08-3.75-4.41-5.84-8.13-6.3s-7.91-.37-10.62-3c-.76-2.53-3.32-4-5.66-5.26-6.13-3.23-17.11-12.1-24.31-11.87-3.42.12-8.23,3.52-7.9,7.41.3,3.45,5.4,6.27,7.59,2.54-.48,3.35-.95,6.71-1.42,10.06a29.1,29.1,0,0,1,31.16,3.67c2.13,1.8,4,3.91,6.22,5.59S522.94,661.91,525.71,661.57Z" style="fill:#356938"/>
			<path d="M535.81,666.41c3.49,3.05,8.77,3.32,13.24,3.6l16.37,1c2,.13,4.66-.2,5.05-2.18.26-1.38-.86-2.62-2-3.48C560.87,659.43,541.45,655.65,535.81,666.41Z" style="fill:#356938"/>
			<path d="M544.42,643.34h0l0,0Z" style="fill:#356938"/>
			<path d="M547.32,645a17.31,17.31,0,0,0-2.85-1.58l2.82,1.57a5.39,5.39,0,0,1-2.86-1.59,6.46,6.46,0,0,0-2.21-.5c-1.91-.06-4,1.35-3.93,3.25.07,2.31,2.83,3.38,5.08,3.89l7,1.56c1.58.36,3.52.6,4.56-.64s.32-3.42-1.09-4.37-3.18-1.07-4.85-1.29A16,16,0,0,1,547.32,645Z" style="fill:#356938"/>
			<path d="M510,666.59a4.09,4.09,0,0,0-2.85,4.37c1.46,1.75,3,3.57,5.1,4.45s4.93.47,6.07-1.51.21-4.32-1.41-5.69a10.92,10.92,0,0,0-5.91-2.12l.57.42A3.62,3.62,0,0,0,510,666.59Z" style="fill:#356938"/>
			<path d="M456.16,783.62c-1.72-1.2-3.9-1.45-6-1.67l1.5-.17a5.13,5.13,0,1,0-3.89,9.48,10.44,10.44,0,0,0,5.27.09c1.81-.29,3.85-.72,4.78-2.29C458.92,787.26,457.88,784.81,456.16,783.62Z" style="fill:#356938"/>
			<path d="M430.55,782.07a2.9,2.9,0,0,0-3.07.78,3.36,3.36,0,0,0,.83,4.7,4.16,4.16,0,0,0,4.95-.52,5.48,5.48,0,0,0,1.56-4.91Z" style="fill:#356938"/>
			<path d="M439.15,770.43c-2.22-.67-5.32-.85-6.19,1.3-.76,1.9,1.24,4,3.28,4.11s3.93-1,5.65-2.11l-1.68,1.78a1.76,1.76,0,0,0,2.84-.45,2.82,2.82,0,0,0-.82-3.12A7.73,7.73,0,0,0,439.15,770.43Z" style="fill:#356938"/>
			<path d="M605.81,713.86a7.93,7.93,0,0,0-1.09,0l.54.2a1.82,1.82,0,0,0-.77.66c-.86,1.36-.19,3.26,1,4.3a11.32,11.32,0,0,0,4.39,1.9,8.46,8.46,0,0,1,4.22,2.19,9.32,9.32,0,0,0-6.48-8.85A2.28,2.28,0,0,0,605.81,713.86Z" style="fill:#356938"/>
			<path d="M601,703.42l-.17.1,6.55-1.7c-1-2.27-3-4.39-5.54-4.47s-4.85,2.92-3.47,5A2.75,2.75,0,0,0,601,703.42Z" style="fill:#356938"/>
			<path d="M525.06,628.13a2.26,2.26,0,1,0-2.26-2.26A2.29,2.29,0,0,0,525.06,628.13Z" style="fill:#356938"/>
			<path d="M531.45,637.18a3.17,3.17,0,0,0-3-2.27,2.87,2.87,0,0,0-2.81,3.44,2.51,2.51,0,0,0,.37,1s0,.06.09.16a.56.56,0,0,0,0,.08,1.75,1.75,0,0,0,.2.19,3,3,0,0,0,3,1A2.94,2.94,0,0,0,531.45,637.18Z" style="fill:#356938"/>
			<path d="M516.63,638.62a2.31,2.31,0,0,0,1.44-1.32,2.55,2.55,0,0,0-1.64-4.5,2.64,2.64,0,0,0-2.2,1.26,3.47,3.47,0,0,0-.15,3.52A2.26,2.26,0,0,0,516.63,638.62Z" style="fill:#356938"/>
			<path d="M586.38,674.2l.63-.3a1.94,1.94,0,1,0-2.66-2.66l-.3.62A1.72,1.72,0,0,0,586.38,674.2Z" style="fill:#356938"/>
			<path d="M580.48,684.35a1.55,1.55,0,0,0,0-3.1A1.55,1.55,0,0,0,580.48,684.35Z" style="fill:#356938"/>
			<path d="M568.39,679.66a1.39,1.39,0,0,0,0-2.78A1.39,1.39,0,0,0,568.39,679.66Z" style="fill:#356938"/>
			<path d="M592.58,680.93c2.77,0,2.77-4.31,0-4.31S589.8,680.93,592.58,680.93Z" style="fill:#356938"/>
			<path d="M605.17,681.64c3,0,3.05-4.73,0-4.73S602.12,681.64,605.17,681.64Z" style="fill:#356938"/>
			<g style="opacity:0.15;mix-blend-mode:multiply">
				<path d="M899.75,298.3A440.27,440.27,0,0,1,1002,581.08c0,244.14-197.92,442.06-442.06,442.06A440.21,440.21,0,0,1,277.18,920.87c81.09,97.34,203.2,159.29,339.79,159.29,244.15,0,442.07-197.92,442.07-442.06C1059,501.51,997.08,379.39,899.75,298.3Z" style="fill:#45746c"/>
			</g>
			<g style="opacity:0.05;mix-blend-mode:multiply">
				<path d="M638.76,217.82a440.51,440.51,0,0,1,301.5,118.77A440.86,440.86,0,0,0,617,196C372.83,196,174.91,394,174.91,638.1A440.82,440.82,0,0,0,315.47,961.38a440.47,440.47,0,0,1-118.78-301.5C196.69,415.73,394.61,217.82,638.76,217.82Z" style="fill:#45746c"/>
			</g>
			<g style="opacity:0.30000000000000004;mix-blend-mode:multiply">
				<path d="M830.76,251.1a440,440,0,0,1,55.07,213.79C885.83,709,687.91,907,443.77,907A440,440,0,0,1,230,851.88c75.35,136.11,220.4,228.28,387,228.28,244.15,0,442.07-197.92,442.07-442.06C1059,471.5,966.87,326.46,830.76,251.1Z" style="fill:#50aab7"/>
			</g>
			<path d="M752.3,707.89a16,16,0,0,0-1.7-4.58c-.85-1.59-3.38-6.15-6.72-12.16Z" style="fill:none"/>
			<path d="M625.44,545.94l31.78,9.2,41.06,11.91,31.78,9.21a19.94,19.94,0,0,0,25.25-14.83l7.32-32.15c2.58-11.42,6.82-30.12,9.42-41.55l7.32-32.15c2.61-11.42-4.79-15.19-16.42-8.37L743,458.92c-7.3-12.41-14.61-24.75-17.43-29.26-6.42-10.26-18.76-18.11-43-18l-96,.55,40.09,70.15a13.4,13.4,0,0,1,2.49,3.52c1.91,3.86,9.18,17.12,16.41,30.22l-19.5,11.45C614.42,534.4,614.15,542.66,625.44,545.94Z" style="fill:url(#linear-gradient-7)"/>
			<path d="M514.3,435.61c-10.3,15.58-36.41,57.06-36.41,57.06a19.28,19.28,0,0,0,6.64,27l64,37.44a20.51,20.51,0,0,0,27.69-7l39.46-64.61c3.44-5.69,7.59-6.54,10.93-3.17l-40.09-70.15-23.13.13C546.75,412.47,527.69,415.36,514.3,435.61Z" style="fill:url(#linear-gradient-8)"/>
			<path d="M401,697.78c7.21,13.94,27.19,49.84,41.82,76.15L488.24,700c5.35-9.1,15.26-26,23.53-39.93L535,672.93c11.79,6.54,19.09,2.58,16.21-8.77l-8.14-32c-2.87-11.35-7.59-29.93-10.48-41.29l-8.11-32a20,20,0,0,0-25.63-14.19l-31.53,10-40.75,12.92-31.53,10c-11.21,3.55-10.73,11.81,1.06,18.33l17.13,9.49c-8.75,16.86-19.05,36.77-21.65,42.48C386.9,658.29,389.8,676.09,401,697.78Z" style="fill:url(#linear-gradient-9)"/>
			<path d="M488.24,700l-45.39,73.93c8.16,14.64,14.66,26.33,16.38,29.57,4.79,9.07,11.66,26.83,55,26.59l63-.36a20,20,0,0,0,19.91-20.07l-.42-74a20.06,20.06,0,0,0-20.16-19.85l-86,.49c-7.76,0-8.75-5.08-6-9.85Z" style="fill:url(#linear-gradient-10)"/>
			<path d="M752.3,707.89l37.52,74.66c13.13-24.1,35.43-66,44.54-84.06,12.19-24.21,15.63-45.2,10-56.23S811,577.54,811,577.54a18.38,18.38,0,0,0-26.25-7.28l-63.62,39a21,21,0,0,0-7.32,27.89s19.33,34.62,30.1,54c3.34,6,5.87,10.57,6.72,12.16A16,16,0,0,1,752.3,707.89Z" style="fill:url(#linear-gradient-11)"/>
			<path d="M780.53,799.29c1.49-2.5,4.88-8.62,9.29-16.74L752.3,707.89c.79,4.34-1.41,7.29-6.8,7.32l-38.81.23-.21-23.15c-.12-13.45-7.16-17.81-15.66-9.7L666.94,705.4c-8.5,8.1-22.4,21.37-30.88,29.47l-23.89,22.81a19.82,19.82,0,0,0,.25,29.2l24.3,22.39,31.4,28.91,24.3,22.38c8.63,8,15.61,3.47,15.49-10l-.21-22,29.71-.17C764.42,828.26,774.63,809.21,780.53,799.29Z" style="fill:url(#linear-gradient-12)"/>
		</g>
	</g>
</svg>